<?xml version="1.0" standalone="no"?><!DOCTYPE svg PUBLIC "-//W3C//DTD SVG 1.1//EN" "http://www.w3.org/Graphics/SVG/1.1/DTD/svg11.dtd"><svg class="icon" width="200px" height="200.00px" viewBox="0 0 1024 1024" version="1.1" xmlns="http://www.w3.org/2000/svg"><path d="M859.072 256l-170.816 20.48a6.912 6.912 0 0 0-4.032 11.712l50.88 49.024-193.472 193.792-87.424-87.424a13.888 13.888 0 0 0-19.392 0L159.104 719.36a7.296 7.296 0 0 0 0 9.856L197.76 768a6.912 6.912 0 0 0 9.536 0l237.376-236.992 87.04 87.04a14.272 14.272 0 0 0 19.328 0l232.64-232.576 50.816 50.816a6.976 6.976 0 0 0 11.712-4.032l20.48-170.752a6.72 6.72 0 0 0-2.688-4.416 6.592 6.592 0 0 0-4.992-1.088z" fill="#FB1E1D" /></svg>